<svg xmlns="http://www.w3.org/2000/svg" xmlns:xlink="http://www.w3.org/1999/xlink" width="500" zoomAndPan="magnify" viewBox="0 0 375 374.999991" height="500" preserveAspectRatio="xMidYMid meet" version="1.0"><defs><clipPath id="5475328056"><path d="M 66 119 L 298.804688 119 L 298.804688 246 L 66 246 Z M 66 119 " clip-rule="nonzero"/></clipPath><clipPath id="a0e87ceb42"><path d="M 78 131 L 310.804688 131 L 310.804688 258 L 78 258 Z M 78 131 " clip-rule="nonzero"/></clipPath></defs><g clip-path="url(#5475328056)"><path fill="#0038ff" d="M 263.003906 179.09375 C 263.105469 179.285156 263.269531 179.375 263.484375 179.367188 C 279.972656 178.753906 294.210938 189.917969 297.410156 206.027344 C 298.933594 213.6875 297.714844 221.371094 294.132812 228.441406 C 290.839844 234.9375 285.316406 239.785156 278.660156 242.886719 C 275.347656 244.429688 271.816406 245.402344 268.074219 245.800781 C 266.792969 245.933594 264.898438 245.992188 262.386719 245.976562 C 213.25 245.625 162.972656 245.335938 111.550781 245.113281 C 107.992188 245.097656 104.449219 245.164062 100.902344 245.160156 C 86.0625 245.148438 73.179688 236.195312 68.421875 222.082031 C 64.042969 209.097656 67.910156 195.179688 78.125 186.144531 C 85.628906 179.503906 95.660156 175.828125 105.714844 176.960938 C 106.265625 177.019531 106.707031 176.855469 107.046875 176.46875 C 107.355469 176.113281 107.851562 175.730469 107.796875 175.21875 C 106.914062 166.648438 108.164062 158.40625 111.535156 150.492188 C 114.253906 144.113281 118.292969 138.441406 123.648438 133.476562 C 126.488281 130.847656 129.410156 128.683594 132.421875 126.980469 C 137.136719 124.316406 142.109375 122.339844 147.324219 121.214844 C 160.339844 118.410156 172.785156 120.074219 184.660156 126.210938 C 194.238281 131.160156 201.914062 139.277344 205.863281 149.375 C 206.085938 149.945312 206.625 150.128906 207.222656 150.066406 C 207.808594 150.003906 208.03125 149.574219 208.453125 149.230469 C 216.429688 142.804688 227.265625 140.652344 237.121094 142.683594 C 245.3125 144.375 252.769531 149.042969 257.394531 155.96875 C 262.003906 162.863281 263.839844 170.414062 262.90625 178.613281 C 262.886719 178.78125 262.917969 178.941406 263.003906 179.09375 Z M 263.003906 179.09375 " fill-opacity="1" fill-rule="nonzero"/></g><g clip-path="url(#a0e87ceb42)"><path fill="#a100ed" d="M 275.003906 191.09375 C 275.105469 191.285156 275.269531 191.375 275.484375 191.367188 C 291.972656 190.753906 306.210938 201.917969 309.410156 218.027344 C 310.933594 225.6875 309.714844 233.371094 306.132812 240.441406 C 302.839844 246.9375 297.316406 251.785156 290.660156 254.886719 C 287.347656 256.429688 283.816406 257.402344 280.074219 257.800781 C 278.792969 257.933594 276.898438 257.992188 274.386719 257.976562 C 225.25 257.625 174.972656 257.335938 123.550781 257.113281 C 119.992188 257.097656 116.449219 257.164062 112.902344 257.160156 C 98.0625 257.148438 85.179688 248.195312 80.421875 234.082031 C 76.042969 221.097656 79.910156 207.179688 90.125 198.144531 C 97.628906 191.503906 107.660156 187.828125 117.714844 188.960938 C 118.265625 189.019531 118.707031 188.855469 119.046875 188.46875 C 119.355469 188.113281 119.851562 187.730469 119.796875 187.21875 C 118.914062 178.648438 120.164062 170.40625 123.535156 162.488281 C 126.253906 156.113281 130.292969 150.441406 135.648438 145.476562 C 138.488281 142.847656 141.410156 140.683594 144.421875 138.980469 C 149.136719 136.316406 154.109375 134.339844 159.324219 133.214844 C 172.339844 130.410156 184.785156 132.074219 196.660156 138.210938 C 206.238281 143.160156 213.914062 151.277344 217.863281 161.375 C 218.085938 161.945312 218.625 162.128906 219.222656 162.066406 C 219.808594 162.003906 220.03125 161.574219 220.453125 161.230469 C 228.429688 154.804688 239.265625 152.652344 249.121094 154.683594 C 257.3125 156.375 264.769531 161.042969 269.394531 167.96875 C 274.003906 174.863281 275.839844 182.414062 274.90625 190.613281 C 274.886719 190.78125 274.917969 190.941406 275.003906 191.09375 Z M 275.003906 191.09375 " fill-opacity="1" fill-rule="nonzero"/></g></svg>