<?xml version="1.0" encoding="UTF-8"?>
<svg version="1.1" xmlns="http://www.w3.org/2000/svg" width="450" height="450">
<path d="M0 0 C1.23306914 -0.00445784 2.46613829 -0.00891569 3.73657316 -0.01350862 C5.10715577 -0.01341932 6.47773838 -0.01322947 7.84832096 -0.01294994 C9.3026885 -0.01624958 10.75705513 -0.01997536 12.2114206 -0.02409142 C16.21344374 -0.03410856 20.21545188 -0.03782777 24.21748579 -0.04048073 C28.53195767 -0.04438473 32.84641769 -0.05396313 37.160882 -0.0626936 C47.58428338 -0.08245717 58.00768573 -0.09252491 68.43110117 -0.10142139 C73.34117181 -0.10580519 78.25124137 -0.11117183 83.16131115 -0.11641026 C99.4869203 -0.1334238 115.81252879 -0.14791695 132.13814545 -0.155159 C136.37487571 -0.15706886 140.61160597 -0.1589892 144.84833622 -0.16094494 C146.4278446 -0.16167055 146.4278446 -0.16167055 148.03926224 -0.16241082 C165.08895602 -0.17070723 182.13857955 -0.19603702 199.18824267 -0.22852562 C216.69797563 -0.26161842 234.20767293 -0.27960984 251.71743733 -0.28280324 C261.54633124 -0.28496647 271.37512277 -0.2936876 281.20398617 -0.31926441 C289.5767627 -0.3410019 297.94941198 -0.34900691 306.32221352 -0.33929763 C310.59118806 -0.33476151 314.85990021 -0.33659878 319.12883854 -0.35605907 C323.04438641 -0.3737535 326.95948172 -0.37264268 330.87503482 -0.35716178 C332.28429485 -0.35479515 333.69358675 -0.35905976 335.10279828 -0.37099043 C351.25366022 -0.49915064 366.23049554 4.19411972 378.3007288 15.29047108 C391.52758767 29.51160408 396.32937839 43.39923982 396.28299809 62.44798756 C396.28673807 63.90580871 396.29134099 65.36362786 396.29672873 66.82144386 C396.3089312 70.81445136 396.30870152 74.80737491 396.30633998 78.8003968 C396.30593111 83.11207829 396.31697767 87.42373311 396.32645512 91.73540211 C396.3430513 100.17826526 396.34856405 108.62110048 396.34967987 117.06397858 C396.35063106 123.92914597 396.3547449 130.79430417 396.36108112 137.65946865 C396.37869025 157.13583957 396.38792058 176.61218846 396.38642018 196.0885674 C396.38634026 197.1380252 396.38626035 198.18748301 396.38617802 199.26874256 C396.38609626 200.31948614 396.38601449 201.37022972 396.38593026 202.45281402 C396.38511759 219.4763918 396.40425124 236.49988105 396.43245475 253.52343323 C396.46120463 271.01521753 396.47499387 288.50695868 396.4732672 305.9987672 C396.47260399 315.81418142 396.47806571 325.62950284 396.4996233 335.44489574 C396.51786284 343.80294329 396.52215973 352.16085598 396.50860445 360.51891484 C396.50208861 364.77981103 396.50190727 369.04044871 396.51931095 373.30132008 C396.53510849 377.20931515 396.53211062 381.1168482 396.51474269 385.02483246 C396.51168739 386.43127773 396.5152492 387.83775805 396.52646284 389.24416193 C396.64984781 405.83034696 391.60809142 420.91009371 380.14057255 433.19672108 C369.69574932 442.71994225 356.44489003 450.24427648 342.0311451 450.26844215 C340.79807595 450.2729 339.56500681 450.27735784 338.29457194 450.28195077 C336.92398933 450.28186148 335.55340672 450.28167163 334.18282413 450.2813921 C332.72845659 450.28469173 331.27408996 450.28841751 329.8197245 450.29253358 C325.81770136 450.30255071 321.81569321 450.30626992 317.81365931 450.30892289 C313.49918743 450.31282689 309.18472741 450.32240528 304.8702631 450.33113575 C294.44686172 450.35089932 284.02345936 450.36096706 273.60004392 450.36986354 C268.68997329 450.37424735 263.77990373 450.37961399 258.86983395 450.38485241 C242.54422479 450.40186596 226.21861631 450.4163591 209.89299965 450.42360115 C205.65626938 450.42551101 201.41953912 450.42743135 197.18280888 450.42938709 C195.60330049 450.4301127 195.60330049 450.4301127 193.99188285 450.43085297 C176.94218908 450.43914938 159.89256555 450.46447917 142.84290243 450.49696777 C125.33316946 450.53006058 107.82347217 450.54805199 90.31370777 450.55124539 C80.48481386 450.55340862 70.65602233 450.56212975 60.82715893 450.58770657 C52.4543824 450.60944405 44.08173312 450.61744906 35.70893157 450.60773978 C31.43995704 450.60320367 27.17124488 450.60504093 22.90230656 450.62450123 C18.98675868 450.64219565 15.07166338 450.64108484 11.15611028 450.62560394 C9.74685024 450.62323731 8.33755834 450.62750191 6.92834682 450.63943259 C-9.66872128 450.77113352 -24.75164563 445.73481744 -37.04692745 434.25922108 C-46.57014863 423.81439785 -54.09448285 410.56353855 -54.11864853 396.14979362 C-54.12310637 394.91672448 -54.12756422 393.68365534 -54.13215715 392.41322047 C-54.13206785 391.04263786 -54.131878 389.67205525 -54.13159847 388.30147266 C-54.13489811 386.84710512 -54.13862389 385.39273849 -54.14273995 383.93837303 C-54.15275709 379.93634989 -54.1564763 375.93434174 -54.15912926 371.93230784 C-54.16303326 367.61783596 -54.17261166 363.30337594 -54.18134212 358.98891163 C-54.2011057 348.56551024 -54.21117343 338.14210789 -54.22006992 327.71869245 C-54.22445372 322.80862182 -54.22982036 317.89855226 -54.23505878 312.98848248 C-54.25207233 296.66287332 -54.26656548 280.33726484 -54.27380753 264.01164818 C-54.27571739 259.77491791 -54.27763772 255.53818765 -54.27959347 251.30145741 C-54.28007721 250.24845182 -54.28056095 249.19544623 -54.28105935 248.11053138 C-54.28935576 231.0608376 -54.31468555 214.01121408 -54.34717415 196.96155096 C-54.38026695 179.45181799 -54.39825837 161.9421207 -54.40145177 144.4323563 C-54.403615 134.60346238 -54.41233613 124.77467086 -54.43791294 114.94580746 C-54.45965043 106.57303093 -54.46765544 98.20038165 -54.45794616 89.8275801 C-54.45341004 85.55860557 -54.45524731 81.28989341 -54.4747076 77.02095509 C-54.49240202 73.10540721 -54.49129121 69.19031191 -54.47581031 65.27475881 C-54.47344368 63.86549877 -54.47770829 62.45620687 -54.48963896 61.04699535 C-54.6213399 44.44992725 -49.58502382 29.3670029 -38.10942745 17.07172108 C-27.66460423 7.5484999 -14.41374493 0.02416568 0 0 Z " fill="#000000" transform="translate(53.9844274520874,-0.13422107696533203)"/>
<path d="M0 0 C1.75409431 -0.02893593 1.75409431 -0.02893593 3.54362488 -0.05845642 C8.93678055 -0.11653205 14.32977436 -0.16586641 19.72314453 -0.19628906 C22.55239431 -0.2139507 25.38061855 -0.24851579 28.20947266 -0.29882812 C58.3345979 -0.82209094 58.3345979 -0.82209094 71.3137207 6.20874023 C71.91195145 6.5272998 72.51018219 6.84585938 73.12654114 7.17407227 C84.89001293 13.48151133 95.62674433 22.39767148 100.3137207 35.20874023 C100.8087207 36.28124023 101.3037207 37.35374023 101.8137207 38.45874023 C105.1932324 46.41835164 105.58599881 54.21211631 105.4387207 62.77124023 C105.42969727 63.77993164 105.42067383 64.78862305 105.41137695 65.82788086 C105.38805426 68.28842481 105.35532833 70.74844919 105.3137207 73.20874023 C104.6537207 73.20874023 103.9937207 73.20874023 103.3137207 73.20874023 C103.2209082 74.35342773 103.2209082 74.35342773 103.1262207 75.52124023 C101.46246064 83.07215129 97.83335959 89.97475556 93.3137207 96.20874023 C91.07538972 98.88160357 91.07538972 98.88160357 91.5012207 101.15405273 C92.44317007 103.53609777 93.67374554 105.12050074 95.3137207 107.08374023 C97.92832466 110.42392807 99.09686121 112.8715504 99.3137207 117.20874023 C99.9737207 117.20874023 100.6337207 117.20874023 101.3137207 117.20874023 C104.94307673 125.4106107 105.91152634 132.47600723 105.7512207 141.39624023 C105.75831055 142.5196582 105.76540039 143.64307617 105.77270508 144.80053711 C105.72275635 151.34381995 105.04092479 156.257875 102.3137207 162.20874023 C101.92829102 163.11624023 101.54286133 164.02374023 101.14575195 164.95874023 C100.80930664 165.70124023 100.47286133 166.44374023 100.1262207 167.20874023 C99.60995117 168.35342773 99.60995117 168.35342773 99.08325195 169.52124023 C98.82930664 170.07811523 98.57536133 170.63499023 98.3137207 171.20874023 C97.6537207 171.20874023 96.9937207 171.20874023 96.3137207 171.20874023 C96.06879883 171.9319043 95.82387695 172.65506836 95.5715332 173.40014648 C91.68235384 182.08436997 82.63701761 190.11744502 73.8137207 193.58374023 C72.9887207 193.78999023 72.1637207 193.99624023 71.3137207 194.20874023 C71.3137207 194.86874023 71.3137207 195.52874023 71.3137207 196.20874023 C61.19104614 201.15760336 50.689431 201.52427277 39.5793457 201.54467773 C37.66324493 201.55466293 37.66324493 201.55466293 35.70843506 201.56484985 C33.02577603 201.57491839 30.34352343 201.58054053 27.66088867 201.5793457 C24.23913428 201.57914141 20.81820014 201.60660017 17.39664078 201.64089012 C14.10340718 201.6685515 10.81017965 201.6673079 7.5168457 201.66967773 C6.29692932 201.68404877 5.07701294 201.6984198 3.82012939 201.71322632 C-2.91055855 201.67706146 -7.2439446 201.29547856 -12.6862793 197.20874023 C-14.6472168 195.13842773 -14.6472168 195.13842773 -16.0612793 193.08374023 C-16.78444336 192.05893555 -16.78444336 192.05893555 -17.5222168 191.01342773 C-19.8976335 187.33073473 -19.81638506 184.84029341 -19.82672119 180.44085693 C-19.82969231 179.73692692 -19.83266344 179.03299691 -19.83572459 178.30773568 C-19.84443079 175.93716021 -19.84592146 173.56663513 -19.84741211 171.19604492 C-19.85203899 169.5010721 -19.85706347 167.80610032 -19.86245728 166.11112976 C-19.87559726 161.49735651 -19.88202953 156.88359782 -19.88646793 152.26980877 C-19.88939654 149.38824708 -19.89350098 146.50668938 -19.89797211 143.6251297 C-19.91165225 134.61228508 -19.92131595 125.59944958 -19.925174 116.5865953 C-19.92965391 106.17756481 -19.94719654 95.7686657 -19.97617459 85.35967517 C-19.99778594 77.31799129 -20.00787801 69.27634439 -20.00921512 61.23463178 C-20.01026369 56.42999811 -20.01618234 51.62548784 -20.03403473 46.8208847 C-20.05050559 42.29994057 -20.05267571 37.77921272 -20.04389572 33.25824928 C-20.04312477 31.59982792 -20.04747567 29.94139498 -20.05735397 28.28300285 C-20.07006091 26.01659708 -20.06420398 23.75095873 -20.05377197 21.48455811 C-20.05523853 20.21692501 -20.05670509 18.94929192 -20.05821609 17.6432457 C-19.43253609 11.86564747 -17.08010508 8.08272664 -12.6862793 4.39624023 C-12.0056543 3.81229492 -11.3250293 3.22834961 -10.6237793 2.62670898 C-7.17749679 0.10453045 -4.1380151 0.06386245 0 0 Z " fill="#3222F3" transform="translate(108.686279296875,94.791259765625)"/>
<path d="M0 0 C2.61627566 2.03016196 5.07006383 4.18946838 7.52929688 6.40869141 C8.28597656 7.04548828 9.04265625 7.68228516 9.82226562 8.33837891 C20.40701595 17.87898558 25.59321374 30.92219052 26.83789062 44.86572266 C27.13950728 52.86313408 26.36974857 57.18136374 20.93945312 63.15869141 C16.89011782 66.85702725 13.43022966 67.88865967 7.96679688 68.15869141 C2.73198619 67.89210383 -0.48687357 67.08196448 -4.10742188 63.23681641 C-7.67722153 58.44980712 -9.54696627 54.41470076 -9.97070312 48.40869141 C-10.32477608 43.39778931 -11.42005937 39.46117379 -14.47070312 35.40869141 C-16.70389275 33.52533621 -19.01788428 32.01245757 -21.47070312 30.40869141 C-21.47070312 29.74869141 -21.47070312 29.08869141 -21.47070312 28.40869141 C-23.99183404 28.35421319 -26.51176162 28.31479289 -29.03320312 28.28369141 C-29.73767578 28.26693359 -30.44214844 28.25017578 -31.16796875 28.23291016 C-37.43379852 28.17516057 -43.35192678 28.84634664 -48.22070312 33.15869141 C-48.77242188 33.62791016 -49.32414062 34.09712891 -49.89257812 34.58056641 C-54.93830626 40.42561781 -55.11768033 46.27790069 -54.93554688 53.70166016 C-54.24396171 59.21690659 -52.5367996 62.63712104 -48.47070312 66.40869141 C-42.04384982 71.25575954 -35.2242923 72.03064669 -27.40429688 72.90478516 C-12.80062854 74.77556293 -0.68719779 79.64130732 9.52929688 90.40869141 C10.233125 91.13830078 10.93695313 91.86791016 11.66210938 92.61962891 C20.52929688 102.25182866 20.52929688 102.25182866 20.52929688 108.40869141 C21.18929687 108.40869141 21.84929687 108.40869141 22.52929688 108.40869141 C23.01439481 109.78161008 23.49205201 111.15715844 23.96679688 112.53369141 C24.23363281 113.29939453 24.50046875 114.06509766 24.77539062 114.85400391 C26.64055574 121.17430434 26.65235124 127.25313603 26.59179688 133.78369141 C26.58728516 134.71052734 26.58277344 135.63736328 26.578125 136.59228516 C26.56641261 138.86448849 26.5500106 141.13655528 26.52929688 143.40869141 C25.86929688 143.40869141 25.20929688 143.40869141 24.52929688 143.40869141 C24.43648437 144.76994141 24.43648437 144.76994141 24.34179688 146.15869141 C22.90133116 155.90650051 17.98071456 164.16952166 11.52929688 171.40869141 C10.96855469 172.08544922 10.4078125 172.76220703 9.83007812 173.45947266 C3.92150935 180.06015144 -3.54018815 183.74877882 -11.47070312 187.40869141 C-12.46199219 187.86759766 -13.45328125 188.32650391 -14.47460938 188.79931641 C-26.18659514 193.42546934 -40.81611487 193.05633543 -52.47070312 188.40869141 C-53.43105469 188.02970703 -54.39140625 187.65072266 -55.38085938 187.26025391 C-71.01014557 180.28253387 -82.13673352 167.06569494 -88.47070312 151.40869141 C-88.82519531 150.59916016 -89.1796875 149.78962891 -89.54492188 148.95556641 C-91.34945133 143.9912069 -91.62722748 139.09346647 -91.65820312 133.84619141 C-91.67238281 132.75177734 -91.6865625 131.65736328 -91.70117188 130.52978516 C-91.32185445 125.39292715 -89.73518075 122.25049029 -86.09570312 118.65869141 C-85.21785156 117.76923828 -85.21785156 117.76923828 -84.32226562 116.86181641 C-80.73696196 114.04803378 -77.14772732 114.29348874 -72.72070312 114.34619141 C-71.73585938 114.35521484 -70.75101562 114.36423828 -69.73632812 114.37353516 C-68.98867188 114.38513672 -68.24101562 114.39673828 -67.47070312 114.40869141 C-67.47070312 115.06869141 -67.47070312 115.72869141 -67.47070312 116.40869141 C-66.58382813 116.61494141 -65.69695312 116.82119141 -64.78320312 117.03369141 C-60.16263314 118.95166385 -57.73155319 121.88699128 -55.47070312 126.40869141 C-55.36662785 128.26180954 -55.28703247 130.11633861 -55.22070312 131.97119141 C-54.66103636 139.37122979 -52.0697083 144.2583821 -47.40820312 149.90869141 C-45.391455 151.47004479 -43.97877319 152.05039568 -41.47070312 152.40869141 C-41.47070312 153.06869141 -41.47070312 153.72869141 -41.47070312 154.40869141 C-32.63426596 155.04491488 -25.92006856 155.40420187 -18.42773438 150.12353516 C-15.79041739 147.81259273 -14.06410297 145.52909943 -12.47070312 142.40869141 C-12.05820312 141.62494141 -11.64570313 140.84119141 -11.22070312 140.03369141 C-9.07719331 132.53140706 -10.67517464 125.07156951 -14.03320312 118.22119141 C-16.87650812 114.94045488 -19.70682119 113.33019635 -23.54492188 111.38916016 C-25.47070312 110.40869141 -25.47070312 110.40869141 -26.47070312 109.40869141 C-27.93914549 109.25353594 -29.41380962 109.15642767 -30.88867188 109.08447266 C-47.58533746 108.07353029 -59.80645092 105.07611517 -72.47070312 93.40869141 C-73.13972656 92.79638672 -73.80875 92.18408203 -74.49804688 91.55322266 C-78.06950895 88.13277377 -80.98263988 84.68816019 -83.47070312 80.40869141 C-83.47070312 79.74869141 -83.47070312 79.08869141 -83.47070312 78.40869141 C-84.13070312 78.40869141 -84.79070312 78.40869141 -85.47070312 78.40869141 C-86.10330637 76.76576551 -86.72630861 75.1191425 -87.34570312 73.47119141 C-87.69375 72.55466797 -88.04179687 71.63814453 -88.40039062 70.69384766 C-93.02096094 56.5117322 -93.94486486 40.12104639 -87.47070312 26.40869141 C-86.81714844 24.99716797 -86.81714844 24.99716797 -86.15039062 23.55712891 C-78.51124181 8.40406323 -65.60746922 -1.37028617 -50.03320312 -7.56005859 C-33.48709151 -13.00816852 -14.13014086 -10.17545375 0 0 Z " fill="#441DF1" transform="translate(331.470703125,104.59130859375)"/>
<path d="M0 0 C8.1984375 -0.0928125 8.1984375 -0.0928125 16.5625 -0.1875 C19.12946655 -0.22846802 19.12946655 -0.22846802 21.74829102 -0.27026367 C23.12515561 -0.27903653 24.50202807 -0.28667857 25.87890625 -0.29296875 C26.92637024 -0.3159906 26.92637024 -0.3159906 27.99499512 -0.33947754 C33.97389322 -0.34262157 38.68128312 0.90151967 43.1796875 4.97265625 C43.73914063 5.66230469 44.29859375 6.35195312 44.875 7.0625 C45.44992188 7.75472656 46.02484375 8.44695312 46.6171875 9.16015625 C50.61764816 14.48280306 49.68089855 21.66635882 49 28 C46.77281122 33.45586514 43.00583488 37.8713532 38 41 C33.3375985 42.88685937 29.42608886 43.23540871 24.4140625 43.1953125 C23.12967285 43.19031738 21.8452832 43.18532227 20.52197266 43.18017578 C18.90597168 43.16196777 17.2899707 43.14375977 15.625 43.125 C10.46875 43.08375 5.3125 43.0425 0 43 C0 28.81 0 14.62 0 0 Z " fill="#000003" transform="translate(127,215)"/>
<path d="M0 0 C7.9509375 -0.0928125 7.9509375 -0.0928125 16.0625 -0.1875 C18.55115601 -0.22846802 18.55115601 -0.22846802 21.09008789 -0.27026367 C22.42593664 -0.27903707 23.7617935 -0.28667898 25.09765625 -0.29296875 C25.77437378 -0.30831665 26.45109131 -0.32366455 27.14831543 -0.33947754 C32.20485352 -0.34221722 35.55239786 0.80780497 40 3 C40 3.66 40 4.32 40 5 C40.598125 5.2475 41.19625 5.495 41.8125 5.75 C45.93237524 8.10421442 47.50151409 11.63457616 49 16 C49.88376215 22.5602344 49.98044262 28.37671749 46.3125 34.0625 C42.89831507 38.44069009 39.62019522 42.00995935 34 43 C31.38128533 43.08315367 28.7897706 43.11642306 26.171875 43.09765625 C25.17534912 43.09614563 25.17534912 43.09614563 24.15869141 43.09460449 C21.68910992 43.08939262 19.21955313 43.07543139 16.75 43.0625 C11.2225 43.041875 5.695 43.02125 0 43 C0 28.81 0 14.62 0 0 Z " fill="#000003" transform="translate(127,133)"/>
<path d="M0 0 C3.83625 -0.103125 7.6725 -0.20625 11.625 -0.3125 C13.42251709 -0.38078003 13.42251709 -0.38078003 15.25634766 -0.45043945 C24.08036747 -0.56527766 24.08036747 -0.56527766 27.7421875 2.23046875 C30.06008273 5.0737001 30.74607059 6.04467288 30.5 9.625 C30.45359375 10.75808594 30.45359375 10.75808594 30.40625 11.9140625 C30 14 30 14 28 17 C27.01 17 26.02 17 25 17 C25 17.99 25 18.98 25 20 C25.598125 20.103125 26.19625 20.20625 26.8125 20.3125 C29.38534023 21.12110693 30.31675162 21.91126322 32 24 C32.68880655 27.06518917 32.58893897 29.9202274 32 33 C29.47031526 36.28175318 27.92268669 37.69243777 24 39 C22.15389468 39.08239169 20.30494836 39.10743359 18.45703125 39.09765625 C17.00647339 39.09390991 17.00647339 39.09390991 15.52661133 39.09008789 C14.30095459 39.08098389 13.07529785 39.07187988 11.8125 39.0625 C5.9653125 39.0315625 5.9653125 39.0315625 0 39 C0 26.13 0 13.26 0 0 Z " fill="#002BE9" transform="translate(126,345)"/>
<path d="M0 0 C3.17892453 1.56378813 5.55352011 3.45481487 8 6 C8.33 6.33 8.66 6.66 9 7 C9.04080783 8.99958364 9.04254356 11.00045254 9 13 C6.69 13 4.38 13 2 13 C2 11.35 2 9.7 2 8 C1.01 7.67 0.02 7.34 -1 7 C-1 6.34 -1 5.68 -1 5 C-2.60495567 5.11442461 -4.20898119 5.24194694 -5.8125 5.375 C-6.70582031 5.44460938 -7.59914062 5.51421875 -8.51953125 5.5859375 C-11.24398499 5.86645036 -11.24398499 5.86645036 -14 8 C-14.2502157 11.08365871 -14.2502157 11.08365871 -14 14 C-10.37159201 15.33678189 -6.93072492 16.17444284 -3.125 16.75 C2.20864896 17.80864851 6.57083179 19.63728465 10 24 C10.96859996 27.21733789 10.91886661 29.77507461 10 33 C7.625 36.0625 7.625 36.0625 5 38 C4.34 38 3.68 38 3 38 C3 38.66 3 39.32 3 40 C-1.90844654 41.63614885 -6.87785852 41.49525341 -12 41 C-15.5 39.25 -15.5 39.25 -18 37 C-18.78375 36.38125 -19.5675 35.7625 -20.375 35.125 C-22.51998472 32.32001998 -22.31298188 30.44280069 -22 27 C-20.02 27 -18.04 27 -16 27 C-15.525625 27.969375 -15.05125 28.93875 -14.5625 29.9375 C-13.29806053 32.80477437 -13.29806053 32.80477437 -12 34 C-10.21162378 34.12524459 -8.41771786 34.17573676 -6.625 34.1875 C-5.64789063 34.20167969 -4.67078125 34.21585937 -3.6640625 34.23046875 C-0.77212978 34.19541983 -0.77212978 34.19541983 2 32 C2.2502157 28.91634129 2.2502157 28.91634129 2 26 C-1.66991935 24.35996278 -4.89157286 23.68455569 -8.875 23.25 C-13.81912824 22.45039407 -17.2629878 21.41965398 -20.84765625 17.84375 C-22.66172382 14.94124189 -22.77345977 12.47954287 -22.49609375 9.1171875 C-21.58976411 5.24922949 -19.57292766 3.0045288 -16.28125 0.90234375 C-11.15088886 -1.12696006 -5.38350028 -0.71419903 0 0 Z " fill="#7B00D1" transform="translate(220,344)"/>
<path d="M0 0 C7 0 7 0 10 1 C10.66 0.67 11.32 0.34 12 0 C13.54023996 -0.06950541 15.08334988 -0.08452357 16.625 -0.0625 C17.85089844 -0.04896484 17.85089844 -0.04896484 19.1015625 -0.03515625 C20.04128906 -0.01775391 20.04128906 -0.01775391 21 0 C21 0.66 21 1.32 21 2 C21.61875 2.268125 22.2375 2.53625 22.875 2.8125 C25 4 25 4 27 7 C27.22705078 9.36010742 27.22705078 9.36010742 27.1953125 12.10546875 C27.18886719 13.08837891 27.18242187 14.07128906 27.17578125 15.08398438 C27.15902344 16.10814453 27.14226562 17.13230469 27.125 18.1875 C27.11597656 19.22326172 27.10695313 20.25902344 27.09765625 21.32617188 C27.0740786 23.88434685 27.0411703 26.44205748 27 29 C24.69 29 22.38 29 20 29 C19.98018066 28.44014404 19.96036133 27.88028809 19.93994141 27.3034668 C19.84462217 24.76434146 19.73497247 22.22603112 19.625 19.6875 C19.5940625 18.80642578 19.563125 17.92535156 19.53125 17.01757812 C19.49257813 16.17001953 19.45390625 15.32246094 19.4140625 14.44921875 C19.36693115 13.27879028 19.36693115 13.27879028 19.31884766 12.0847168 C19.10412111 9.69844232 19.10412111 9.69844232 17 7 C13.5 6.58333333 13.5 6.58333333 10 7 C7.56085508 9.43914492 7.71337477 10.21446431 7.5859375 13.5703125 C7.54726563 14.46621094 7.50859375 15.36210937 7.46875 16.28515625 C7.4378125 17.22230469 7.406875 18.15945313 7.375 19.125 C7.33632813 20.06988281 7.29765625 21.01476562 7.2578125 21.98828125 C7.16338654 24.32532375 7.07781606 26.66235501 7 29 C4.69 29 2.38 29 0 29 C0 19.43 0 9.86 0 0 Z " fill="#7700CA" transform="translate(268,355)"/>
<path d="M0 0 C1.98 0 3.96 0 6 0 C9.15402767 5.06897304 11.20071924 10.07160299 13.0703125 15.7421875 C13.77790574 18.16261151 13.77790574 18.16261151 16 19 C16.0928125 17.63875 16.0928125 17.63875 16.1875 16.25 C16.97101798 10.49232998 19.65762719 5.26385624 22 0 C23.98 0 25.96 0 28 0 C26.36139918 9.07023482 22.96324744 17.71057037 19 26 C18.59652344 26.87011719 18.19304687 27.74023438 17.77734375 28.63671875 C13.36148397 37.88706722 13.36148397 37.88706722 10 40 C7.24369388 40.3080265 4.79042972 40.18602865 2 40 C2 38.35 2 36.7 2 35 C2.928125 34.938125 3.85625 34.87625 4.8125 34.8125 C8.12180242 34.2932015 8.12180242 34.2932015 9.9375 31.75 C11.21449784 28.44482912 10.95180658 27.37676104 10 24 C8.92312789 21.66401588 7.81850816 19.39858373 6.625 17.125 C0 4.35222458 0 4.35222458 0 0 Z " fill="#7F00D7" transform="translate(235,356)"/>
<path d="M0 0 C3.29857111 2.29774792 5.2749044 3.85529155 6.61328125 7.703125 C6.61328125 8.404375 6.61328125 9.105625 6.61328125 9.828125 C4.30328125 9.828125 1.99328125 9.828125 -0.38671875 9.828125 C-0.71671875 8.838125 -1.04671875 7.848125 -1.38671875 6.828125 C-5.10730235 4.34773593 -6.98468446 4.36475297 -11.38671875 4.828125 C-14.02909721 6.05247655 -14.02909721 6.05247655 -15.38671875 8.828125 C-15.86731 12.21410883 -16.03779128 15.46131752 -15.38671875 18.828125 C-14.39671875 19.488125 -13.40671875 20.148125 -12.38671875 20.828125 C-12.38671875 21.488125 -12.38671875 22.148125 -12.38671875 22.828125 C-10.75919644 22.57288626 -9.13468679 22.29838006 -7.51171875 22.015625 C-6.60679687 21.86480469 -5.701875 21.71398437 -4.76953125 21.55859375 C-2.04259397 20.99761199 -2.04259397 20.99761199 -0.38671875 17.828125 C2.73828125 17.640625 2.73828125 17.640625 5.61328125 17.828125 C4.7789714 21.49908833 3.92170436 23.51970189 1.23828125 26.203125 C-4.00770734 28.55477506 -8.72904782 28.72064528 -14.38671875 27.828125 C-17.404206 26.48359837 -18.94402028 25.1622591 -21.38671875 22.828125 C-23.40556492 16.7715865 -23.40917372 10.06966089 -20.76171875 4.265625 C-15.1937826 -1.44883579 -7.40917598 -3.63789328 0 0 Z " fill="#7C00D2" transform="translate(322.38671875,356.171875)"/>
<path d="M0 0 C1.32 0 2.64 0 4 0 C4 2.64 4 5.28 4 8 C6.31 8 8.62 8 11 8 C11 9.32 11 10.64 11 12 C9.02 12 7.04 12 5 12 C5.33 17.61 5.66 23.22 6 29 C7.98 29.66 9.96 30.32 12 31 C11.67 32.65 11.34 34.3 11 36 C3.78688525 36.48087432 3.78688525 36.48087432 0.75 34.625 C-1.97962656 30.53056016 -1.42471963 26.54806986 -1.25 21.75 C-1.23195312 20.81414062 -1.21390625 19.87828125 -1.1953125 18.9140625 C-1.14825673 16.60832985 -1.08253713 14.30469055 -1 12 C-2.32 12 -3.64 12 -5 12 C-5 10.68 -5 9.36 -5 8 C-3.68 7.67 -2.36 7.34 -1 7 C-0.67 4.69 -0.34 2.38 0 0 Z " fill="#002CEE" transform="translate(181,348)"/>
<path d="M0 0 C2.24940295 -0.08119503 4.49964871 -0.13927819 6.75 -0.1875 C8.00296875 -0.22230469 9.2559375 -0.25710938 10.546875 -0.29296875 C14.16044242 0.0136122 15.53537986 0.39541378 18 3 C18.5625 5.9375 18.5625 5.9375 18 9 C15.23150139 11.85565505 13.65421839 12.92330382 9.66796875 13.390625 C6.4453125 13.26041667 3.22265625 13.13020833 0 13 C0 8.71 0 4.42 0 0 Z " fill="#000416" transform="translate(133,366)"/>
<path d="M0 0 C2.31 0 4.62 0 7 0 C7 9.57 7 19.14 7 29 C4.69 29 2.38 29 0 29 C0 19.43 0 9.86 0 0 Z " fill="#0028D5" transform="translate(164,355)"/>
<path d="M0 0 C2.45898655 -0.08076963 4.91533742 -0.14037143 7.375 -0.1875 C8.07367188 -0.21263672 8.77234375 -0.23777344 9.4921875 -0.26367188 C11.5234375 -0.29296875 11.5234375 -0.29296875 15 0 C17.15502531 3.23253796 17.46856135 4.25150923 17 8 C15.9296875 9.64453125 15.9296875 9.64453125 14 11 C10.64453125 11.29296875 10.64453125 11.29296875 6.8125 11.1875 C5.54019531 11.16042969 4.26789063 11.13335937 2.95703125 11.10546875 C1.98121094 11.07066406 1.00539062 11.03585937 0 11 C0 7.37 0 3.74 0 0 Z " fill="#000313" transform="translate(133,350)"/>
<path d="M0 0 C1.65 0 3.3 0 5 0 C5 1.65 5 3.3 5 5 C5.66 5 6.32 5 7 5 C6.84152588 5.57073242 6.68305176 6.14146484 6.51977539 6.72949219 C6.00638657 8.97210188 5.79834104 11.03317915 5.68359375 13.328125 C5.64169922 14.12734375 5.59980469 14.9265625 5.55664062 15.75 C5.49766602 16.9875 5.49766602 16.9875 5.4375 18.25 C5.39431641 19.09046875 5.35113281 19.9309375 5.30664062 20.796875 C5.20091457 22.86440671 5.09998705 24.93218281 5 27 C3.35 27 1.7 27 0 27 C0 18.09 0 9.18 0 0 Z " fill="#8900E9" transform="translate(269,356)"/>
<path d="M0 0 C7 0 7 0 8.9375 1.5 C9.288125 1.995 9.63875 2.49 10 3 C8.02 3.99 8.02 3.99 6 5 C6 3.68 6 2.36 6 1 C4.35 1 2.7 1 1 1 C1 9.91 1 18.82 1 28 C2.65 28 4.3 28 6 28 C6 22.06 6 16.12 6 10 C6.33 10 6.66 10 7 10 C7 16.27 7 22.54 7 29 C4.69 29 2.38 29 0 29 C0 19.43 0 9.86 0 0 Z " fill="#4A007D" transform="translate(268,355)"/>
<path d="M0 0 C2.5 0.125 2.5 0.125 3.5 1.125 C3.625 3.625 3.625 3.625 3.5 6.125 C2.5 7.125 2.5 7.125 0 7.25 C-2.5 7.125 -2.5 7.125 -3.5 6.125 C-3.625 3.625 -3.625 3.625 -3.5 1.125 C-2.5 0.125 -2.5 0.125 0 0 Z " fill="#0029DD" transform="translate(167.5,343.875)"/>
<path d="M0 0 C0.66 0.33 1.32 0.66 2 1 C-2.62 5.62 -7.24 10.24 -12 15 C-12 10.09687565 -8.29800369 7.38658643 -5 4 C-3.37458956 2.61667196 -1.72614587 1.25537882 0 0 Z " fill="#510BBC" transform="translate(263,107)"/>
<path d="M0 0 C-1.44077046 3.36179774 -3.24750021 5.59156268 -6 8 C-6.66 8 -7.32 8 -8 8 C-6.48291727 4.46014029 -4.24676932 0 0 0 Z " fill="#0E0533" transform="translate(287,135)"/>
<path d="M0 0 C6.52307692 -0.36923077 6.52307692 -0.36923077 8.9375 1.5 C9.288125 1.995 9.63875 2.49 10 3 C8.02 3.99 8.02 3.99 6 5 C6 3.68 6 2.36 6 1 C4.02 1 2.04 1 0 1 C0 0.67 0 0.34 0 0 Z " fill="#300052" transform="translate(268,355)"/>
</svg>
